<?xml version="1.0" standalone="no"?>
<svg width="64" height="64" viewBox="0 0 512 384" version="1.1" xmlns="http://www.w3.org/2000/svg">
  <path d="M210 172c22 -18 45 -36 45 -73c0 -49 -47 -99 -139 -99c-80 0 -116 39 -116 77c0 10 3 42 42 65c27 16 61 21 85 23c-4 7 -8 15 -8 26c0 4 0 7 1 10h-4c-19 0 -46 4 -67 26c-15 15 -24 36 -24 57c0 26 13 53 35 71v0c32 25 69 29 94 29h134l-60 -33h-13 c11 -13 23 -31 23 -58c0 -40 -25 -59 -45 -74v-1c-6 -6 -11 -10 -11 -17c0 -6 4 -10 10 -15v0zM85 308c0 -13 4 -33 14 -51c7 -12 21 -27 41 -27c10 0 21 4 28 11c10 10 10 25 10 30c0 18 -6 37 -15 53c-8 13 -20 28 -40 28c-11 0 -23 -5 -29 -13c-6 -7 -9 -18 -9 -31z M206 80c0 20 -13 31 -50 56c-3 0 -4 1 -8 1c-6 0 -31 -2 -50 -8c-16 -6 -38 -16 -38 -42c0 -31 32 -51 80 -51c41 0 66 17 66 44zM370 306h78v-34h-78v-81h-34v81h-80v34h80v78h34v-78z" transform="matrix(1,0,0,-1,0,384)"/>
</svg>